<svg version="1.2" xmlns="http://www.w3.org/2000/svg" viewBox="0 0 426 426" width="80" height="80">
	<path stroke='orange' fill='orange' id="Shape 1" class="s0" d="m106.5 213c-58.9 0-106.5-47.6-106.5-106.5 0-58.9 47.6-106.5 106.5-106.5 58.9 0 106.5 47.6 106.5 106.5 0 58.9-47.6 106.5-106.5 106.5z"/>
	<path stroke='orange' fill='orange' id="Shape 1 copy" class="s0" d="m319.5 213c-58.9 0-106.5-47.6-106.5-106.5 0-58.9 47.6-106.5 106.5-106.5 58.9 0 106.5 47.6 106.5 106.5 0 58.9-47.6 106.5-106.5 106.5z"/>
	<path stroke='orange' fill='orange' id="Shape 1 copy 2" class="s0" d="m106.5 426c-58.9 0-106.5-47.6-106.5-106.5 0-58.9 47.6-106.5 106.5-106.5 58.9 0 106.5 47.6 106.5 106.5 0 58.9-47.6 106.5-106.5 106.5z"/>
	<path stroke='orange' fill='orange' id="Shape 1 copy 3" class="s0" d="m319.5 426c-58.9 0-106.5-47.6-106.5-106.5 0-58.9 47.6-106.5 106.5-106.5 58.9 0 106.5 47.6 106.5 106.5 0 58.9-47.6 106.5-106.5 106.5z"/>
</svg>